<svg width="424" height="268" viewBox="0 0 424 268" fill="none" xmlns="http://www.w3.org/2000/svg">
<path d="M43.582 118.496C47.1753 118.496 50.2553 118.753 52.822 119.266C55.3887 119.677 57.2367 120.087 58.366 120.498L56.364 132.818C55.2347 132.407 53.6947 131.997 51.744 131.586C49.7933 131.073 47.432 130.816 44.66 130.816C37.9867 130.816 33.3153 132.664 30.646 136.36C27.9767 139.953 26.642 144.83 26.642 150.99V157.92H57.442V169.932H26.642V238H12.32V150.682C12.32 140.415 14.8353 132.51 19.866 126.966C24.8967 121.319 32.802 118.496 43.582 118.496ZM86.702 238H72.38V157.92H86.702V238ZM79.464 143.444C76.8973 143.444 74.69 142.623 72.842 140.98C71.0967 139.235 70.224 136.925 70.224 134.05C70.224 131.175 71.0967 128.917 72.842 127.274C74.69 125.529 76.8973 124.656 79.464 124.656C82.0307 124.656 84.1867 125.529 85.932 127.274C87.78 128.917 88.704 131.175 88.704 134.05C88.704 136.925 87.78 139.235 85.932 140.98C84.1867 142.623 82.0307 143.444 79.464 143.444ZM124.675 157.92H155.013V169.932H124.675V206.892C124.675 210.896 124.983 214.233 125.599 216.902C126.215 219.469 127.139 221.522 128.371 223.062C129.603 224.499 131.143 225.526 132.991 226.142C134.839 226.758 136.995 227.066 139.459 227.066C143.771 227.066 147.21 226.604 149.777 225.68C152.446 224.653 154.294 223.935 155.321 223.524L158.093 235.382C156.656 236.101 154.14 236.973 150.547 238C146.954 239.129 142.847 239.694 138.227 239.694C132.786 239.694 128.268 239.027 124.675 237.692C121.184 236.255 118.361 234.15 116.205 231.378C114.049 228.606 112.509 225.218 111.585 221.214C110.764 217.107 110.353 212.385 110.353 207.046V135.59L124.675 133.126V157.92ZM225.29 149.758C214.099 149.758 205.989 152.889 200.958 159.152C196.03 165.312 193.566 173.782 193.566 184.562C193.566 189.798 194.182 194.572 195.414 198.884C196.646 203.093 198.494 206.738 200.958 209.818C203.422 212.898 206.502 215.311 210.198 217.056C213.894 218.699 218.206 219.52 223.134 219.52C225.803 219.52 228.062 219.469 229.91 219.366C231.861 219.263 233.555 219.058 234.992 218.75V181.636H259.016V234.458C256.141 235.587 251.521 236.768 245.156 238C238.791 239.335 230.937 240.002 221.594 240.002C213.586 240.002 206.297 238.77 199.726 236.306C193.258 233.842 187.714 230.249 183.094 225.526C178.474 220.803 174.881 215.003 172.314 208.124C169.85 201.245 168.618 193.391 168.618 184.562C168.618 175.63 170.004 167.725 172.776 160.846C175.548 153.967 179.347 148.167 184.172 143.444C188.997 138.619 194.644 134.974 201.112 132.51C207.683 130.046 214.664 128.814 222.056 128.814C227.087 128.814 231.604 129.173 235.608 129.892C239.715 130.508 243.205 131.278 246.08 132.202C249.057 133.023 251.47 133.896 253.318 134.82C255.269 135.744 256.655 136.463 257.476 136.976L250.546 156.226C247.261 154.481 243.462 152.992 239.15 151.76C234.941 150.425 230.321 149.758 225.29 149.758ZM301.543 184.562C301.543 189.798 302.159 194.521 303.391 198.73C304.725 202.939 306.573 206.584 308.935 209.664C311.399 212.641 314.376 214.951 317.867 216.594C321.357 218.237 325.361 219.058 329.879 219.058C334.293 219.058 338.246 218.237 341.737 216.594C345.33 214.951 348.307 212.641 350.669 209.664C353.133 206.584 354.981 202.939 356.213 198.73C357.548 194.521 358.215 189.798 358.215 184.562C358.215 179.326 357.548 174.603 356.213 170.394C354.981 166.082 353.133 162.437 350.669 159.46C348.307 156.38 345.33 154.019 341.737 152.376C338.246 150.733 334.293 149.912 329.879 149.912C325.361 149.912 321.357 150.785 317.867 152.53C314.376 154.173 311.399 156.534 308.935 159.614C306.573 162.591 304.725 166.236 303.391 170.548C302.159 174.757 301.543 179.429 301.543 184.562ZM383.009 184.562C383.009 193.699 381.623 201.759 378.851 208.74C376.182 215.619 372.486 221.419 367.763 226.142C363.04 230.762 357.393 234.253 350.823 236.614C344.355 238.975 337.373 240.156 329.879 240.156C322.589 240.156 315.711 238.975 309.243 236.614C302.775 234.253 297.128 230.762 292.303 226.142C287.477 221.419 283.679 215.619 280.907 208.74C278.135 201.759 276.749 193.699 276.749 184.562C276.749 175.425 278.186 167.417 281.061 160.538C283.935 153.557 287.785 147.705 292.611 142.982C297.539 138.259 303.185 134.717 309.551 132.356C316.019 129.995 322.795 128.814 329.879 128.814C337.168 128.814 344.047 129.995 350.515 132.356C356.983 134.717 362.629 138.259 367.455 142.982C372.28 147.705 376.079 153.557 378.851 160.538C381.623 167.417 383.009 175.425 383.009 184.562Z" fill="black"/>
<path d="M101.331 25.1617C83.535 35.4209 67.5818 48.4922 54.0857 63.7645L73.6005 80.6909C85.5063 72.2369 99.0598 65.5736 113.757 61.1535L101.331 25.1617Z" fill="black"/>
<path d="M105.729 22.704L118.538 59.8058C130.421 56.6778 142.992 55 156 55C164.868 55 173.534 55.7798 181.916 57.2673L180.471 0.604263C153.569 2.7458 128.259 10.5058 105.729 22.704Z" fill="black"/>
<path d="M22.5314 113.345C29.7516 96.6835 39.331 81.2708 50.8509 67.5234L69.515 83.7119C59.8133 91.1798 51.3226 99.8813 44.3441 109.546C42.4463 109.187 40.4935 109 38.5 109C32.718 109 27.2782 110.574 22.5314 113.345Z" fill="black"/>
<path d="M186.902 58.2422C203.878 61.8716 219.593 68.4251 233.352 77.2777L282.373 20.9446C256.428 7.56128 226.96 0 195.715 0C192.262 0 188.831 0.0923538 185.423 0.274719L186.902 58.2422Z" fill="black"/>
<path d="M281.167 134C272.542 112.482 257.238 93.8298 237.504 80.0605L286.864 23.3384C329.643 46.8897 362.241 86.5048 376.431 134H375.96C366.298 120.206 348.881 111 329 111C309.119 111 291.702 120.206 282.04 134H281.167Z" fill="black"/>
</svg>
